<?xml version="1.0" encoding="UTF-8"?>
<svg id="Camada_2" data-name="Camada 2" xmlns="http://www.w3.org/2000/svg" viewBox="0 0 2955.56 2365.23">
  <defs>
    <style>
      .cls-1 {
        fill: #fff9f1;
      }
    </style>
  </defs>
  <g id="Camada_1-2" data-name="Camada 1">
    <path class="cls-1" d="M2853.21,.81c-506.38,19.2-984.45,196.59-1377.1,508.52C1085.72,199.2,610.9,22.05,107.77,1.14L71.66,.4C32.33-.41,0,31.25,0,70.6V2310.78c0,29.76,24.12,53.88,53.88,53.88h0c29.76,0,53.88-24.12,53.88-53.88v-508.44c251.47,44.93,446.59,254.6,469.01,513.06,2.44,28.08,25.52,49.83,53.7,49.83h3.1c29.29,0,53.13-23.41,53.81-52.69,5.9-256.12,54.71-501.8,139.39-730.22,183.61,192.18,300.53,448.59,313.18,731.67,1.28,28.7,25.05,51.24,53.78,51.24h2.19c29.23,0,52.94-23.32,53.83-52.54,8.83-288.7,90.18-559.46,226.36-794.69,136.18,235.23,217.53,505.99,226.36,794.69,.89,29.22,24.6,52.54,53.83,52.54h2.19c28.73,0,52.49-22.54,53.78-51.24,12.65-283.08,129.57-539.49,313.18-731.67,84.69,228.42,133.49,474.1,139.39,730.22,.67,29.28,24.52,52.69,53.81,52.69h3.1c28.18,0,51.26-21.74,53.7-49.81,22.51-259.61,219.26-470.02,472.36-513.67v508.82c0,29.76,24.12,53.88,53.88,53.88h0c29.76,0,53.88-24.12,53.88-53.88V70.22c0-39.36-32.39-71.02-71.74-70.2-12.65,.26-23.9,.54-30.61,.79ZM122.53,109.81c476,24.12,913.55,196.25,1267.48,471.24-40.48,35.38-80.03,72.16-118.4,110.54-70.24,70.24-135.5,144.14-195.64,221.26-274.07-202.26-607.13-328.92-968.21-348.91V123.89c0-8.04,6.74-14.48,14.77-14.07Zm479.07,1926.29c-100.55-180.95-281.26-311.47-493.84-343.2v-457.28c240.21,21.26,459.11,117.7,633,265.61-66.95,171.18-113.7,350.45-139.16,534.87Zm182.68-638.75c-188.37-151.59-421.69-249.43-676.53-270v-455.35c337,19.85,647.83,138.5,903.91,327.38-89.03,125.55-165.04,258.77-227.38,397.98Zm400.38,573.31c-63.97-190.45-172.95-360.39-314.21-497.21,61.97-143.62,138.39-279.59,227.5-406.04,119.91,100.96,225.74,218.13,313.94,348.21-104.79,168.6-182.56,355.62-227.23,555.04Zm-22.41-990.04c93.38-119.98,198.58-230.33,313.85-329.28,115.27,98.95,220.46,209.29,313.85,329.28-118.41,98.96-224.01,212.74-313.85,338.55-89.84-125.8-195.44-239.58-313.85-338.55Zm605.28,990.04c-44.66-199.42-122.43-386.44-227.23-555.04,88.2-130.08,194.04-247.25,313.94-348.21,89.1,126.45,165.53,262.41,227.5,406.04-141.26,136.82-250.24,306.76-314.21,497.21Zm1080.25-278.24c-214.03,30.86-396.11,161.78-497.19,343.67-25.46-184.42-72.21-363.69-139.16-534.87,174.7-148.6,394.83-245.25,636.35-265.91v457.1Zm0-565.38c-256.15,19.98-490.68,118.05-679.87,270.3-62.34-139.21-138.35-272.43-227.38-397.98,256.93-189.5,568.97-308.33,907.26-327.59v455.27Zm0-563.33c-362.37,19.39-696.65,146.23-971.56,349.12-60.14-77.12-125.4-151.02-195.64-221.26-38.37-38.37-77.91-75.15-118.4-110.54,354.77-275.64,793.55-447.91,1270.85-471.39,8.02-.39,14.75,6.05,14.75,14.08v439.98Z"/>
  </g>
</svg>